<svg version="1.1" id="Layer_1" xmlns="http://www.w3.org/2000/svg" xmlns:xlink="http://www.w3.org/1999/xlink" x="0px" y="0px"
	 width="100%" viewBox="0 0 1024 1024" enable-background="new 0 0 1024 1024" xml:space="preserve">
<path fill="#000000" opacity="1.000000" stroke="none" 
	d="
M416.189331,704.720947 
	C411.579437,698.467651 409.603455,691.829590 409.607452,684.376831 
	C409.668945,569.755371 409.645111,455.133942 409.659302,340.512512 
	C409.661285,324.722534 420.627289,311.748291 435.548859,309.747101 
	C451.771851,307.571320 466.179077,316.968781 469.694580,332.846344 
	C471.041595,338.930328 470.843018,345.421906 470.847198,351.728058 
	C470.920197,461.351227 470.901917,570.974426 470.948425,680.597656 
	C470.952789,690.889221 469.471771,700.594055 461.352051,707.942627 
	C447.869263,720.144897 428.614166,718.849731 416.189331,704.720947 
z"/>
<path fill="#000000" opacity="1.000000" stroke="none" 
	d="
M541.185669,390.099670 
	C551.794678,382.465057 562.732788,380.806335 574.284424,386.700806 
	C585.501831,392.424744 590.414734,402.163116 590.838928,414.329102 
	C591.140625,422.981323 590.987915,431.650391 590.989929,440.311920 
	C591.002441,494.614349 591.022400,548.916748 590.976440,603.219177 
	C590.971252,609.358093 591.306702,615.640198 589.263428,621.520508 
	C584.108643,636.356201 569.914795,644.795349 555.153931,642.124573 
	C540.510437,639.474915 530.042236,626.419128 530.072021,610.955139 
	C530.115234,588.478394 530.118225,566.001587 530.110779,543.524780 
	C530.096558,500.715973 530.029114,457.907135 530.062744,415.098389 
	C530.070435,405.331268 533.247742,396.813049 541.185669,390.099670 
z"/>
<path fill="#000000" opacity="1.000000" stroke="none" 
	d="
M303.102478,390.943634 
	C325.686859,378.713379 349.704559,393.404724 349.854279,419.467255 
	C350.077240,458.277222 349.942657,497.089233 349.959991,535.900391 
	C349.970245,558.887207 350.027618,581.874207 349.965332,604.860840 
	C349.942474,613.305786 348.529938,621.405579 343.194580,628.386536 
	C335.243469,638.789978 322.183167,643.017761 309.808350,639.086975 
	C297.399048,635.145264 288.736298,623.698853 288.720978,610.521179 
	C288.645386,545.558228 288.606201,480.594879 288.761597,415.632172 
	C288.786804,405.095520 293.904968,396.892273 303.102478,390.943634 
z"/>
<path fill="#000000" opacity="1.000000" stroke="none" 
	d="
M196.179733,449.249146 
	C212.871231,450.770264 222.842270,457.950470 226.570160,471.134766 
	C227.461563,474.287506 227.868027,477.676575 227.887497,480.960571 
	C228.013809,502.265289 228.097488,523.572021 227.935837,544.876038 
	C227.843170,557.087830 222.967346,566.954712 211.738571,572.619446 
	C200.226974,578.426819 188.816849,577.694397 178.327927,570.024780 
	C170.937286,564.620667 166.846085,556.955811 166.749771,547.823181 
	C166.504044,524.522705 166.547791,501.216919 166.718140,477.915070 
	C166.829865,462.631073 178.321808,451.516571 196.179733,449.249146 
z"/>
<path fill="#000000" opacity="1.000000" stroke="none" 
	d="
M816.030396,451.639771 
	C827.553833,457.618011 833.363831,466.596130 833.431152,479.446991 
	C833.547241,501.601166 834.166687,523.747437 833.462830,545.908875 
	C832.920288,562.992310 819.870300,576.136292 802.765259,576.190735 
	C786.740112,576.241760 772.776550,562.127747 772.698975,545.543457 
	C772.596802,523.711670 772.569397,501.878235 772.717834,480.046967 
	C772.835693,462.721832 784.797913,450.063385 802.085571,448.768250 
	C806.802979,448.414825 811.280273,449.880219 816.030396,451.639771 
z"/>
<path fill="#000000" opacity="1.000000" stroke="none" 
	d="
M706.099487,462.065063 
	C710.698059,468.916046 711.286560,476.381256 711.317078,483.905701 
	C711.402161,504.874207 711.465210,525.843933 711.331238,546.811829 
	C711.227173,563.095520 697.205688,576.277100 680.316589,576.291931 
	C664.210815,576.306091 650.706787,562.912720 650.671082,546.770386 
	C650.621765,524.470215 650.644897,502.169922 650.656555,479.869690 
	C650.664062,465.549072 657.832886,455.057251 670.504822,450.751495 
	C684.028687,446.156219 697.219910,450.257263 706.099487,462.065063 
z"/>
</svg>